<svg width="121" height="64" viewBox="0 0 121 64" fill="none" xmlns="http://www.w3.org/2000/svg">
<path fill-rule="evenodd" clip-rule="evenodd" d="M49.9097 30.4115C48.5944 30.4115 46.4996 31.2058 46.4022 32.4701C46.321 33.2644 47.2304 33.7345 47.9611 33.4265C48.5294 33.1834 49.0166 32.535 49.8123 32.535C50.7216 32.535 51.4523 33.0537 51.4848 33.8966C51.5011 34.2208 51.29 34.1235 50.9814 34.1235C50.4131 34.1235 49.3414 34.1073 48.8704 34.1721C44.4049 34.8367 45.3954 39.7482 48.7405 39.7482C50.0559 39.7482 51.2413 39.6023 52.4591 39.6023C54.018 39.5861 53.9855 38.6946 53.9855 37.5599V34.8043C53.9855 33.2482 53.7744 32.4539 52.9463 31.6272C52.313 30.9789 51.2088 30.4115 49.9097 30.4115ZM50.1695 37.8679C49.3089 37.8679 48.3346 37.7382 48.3346 36.8467C48.3346 35.9714 49.3414 35.8741 50.2182 35.8741C51.7609 35.8741 51.5011 35.4689 51.4848 37.6572C51.1763 37.9165 50.6404 37.8679 50.1695 37.8679ZM74.7544 34.0911C74.7544 33.1671 75.4851 32.4863 76.4432 32.5188C77.7098 32.5674 78.3755 34.01 77.9209 34.0911H74.7544ZM74.7544 35.9714C75.7612 35.9714 76.768 35.9714 77.7747 35.9714C78.7166 35.9714 79.7883 36.1173 80.2754 35.5175C80.7139 34.9664 80.5677 33.6534 80.3242 32.9726C79.2849 30.0711 74.8193 29.3579 72.8707 32.2108C72.3998 32.8754 72.2699 33.54 72.2537 34.5612C72.2537 35.5986 72.1887 36.4577 72.5297 37.3005C73.4229 39.5212 76.297 40.2669 78.6354 39.3916C81.2822 38.3866 80.0481 36.1659 78.4405 37.0088C77.791 37.3492 77.1252 37.7868 76.1184 37.5923C75.3227 37.4302 74.7544 36.8791 74.7544 35.9714ZM57.7691 34.6584C57.7691 33.3779 58.0126 32.6809 59.3442 32.6809C60.3347 32.6809 60.8868 33.0375 60.9356 34.0425C60.9843 34.9664 60.9356 35.9227 60.9356 36.7981C60.9356 38.111 60.7245 39.3267 61.7799 39.6671C62.4944 39.894 63.4363 39.505 63.4363 38.3704V34.3991C63.4363 32.1459 62.1534 30.6385 59.8638 30.6385H58.8895C57.0059 30.6385 55.3171 31.611 55.3171 33.54V38.5325C55.3171 40.1048 57.8827 40.1534 57.7853 38.3704C57.7366 37.3816 57.7691 35.712 57.7691 34.6584ZM68.1941 32.9402C68.8436 32.8916 69.5906 32.9726 70.2239 32.924C71.523 32.7943 71.4905 30.914 70.1752 30.833C69.5256 30.8006 68.8436 30.8168 68.1941 30.8168C68.1291 30.2981 68.5026 28.5475 66.96 28.5312C65.4661 28.5312 65.7096 30.0387 65.7096 30.7681C65.3037 30.8816 65.0114 30.8168 64.7029 31.0275C64.167 31.4165 64.1507 32.308 64.6704 32.6971C65.0439 32.9888 65.3199 32.843 65.6284 32.9726C65.8071 33.232 65.7096 33.9128 65.7096 34.3018C65.7096 35.6634 65.5635 37.1222 66.1481 38.0948C67.1548 39.7482 68.6325 39.6185 70.2726 39.6185C71.5067 39.6185 71.6691 38.6297 71.4093 38.0948C71.0358 37.333 70.1914 37.5113 69.2009 37.5113C68.0804 37.5113 68.1779 36.7332 68.1779 35.7282C68.1779 34.8529 68.1291 33.7993 68.1941 32.9402ZM83.3932 30.7519H83.4094C83.9615 30.7519 84.4162 31.1085 84.5948 31.5948C84.7085 31.6597 84.8384 31.611 84.9358 31.4652C85.6016 30.5088 87.469 30.2819 88.1348 31.0113C88.6382 31.5948 88.492 32.5188 87.5827 32.7457C86.6571 32.9402 85.8614 32.535 85.1632 33.1996C84.9034 33.4265 84.7085 33.6858 84.6598 34.1235V38.4352C84.6598 39.1322 84.0915 39.6833 83.4094 39.6833H83.3932C82.695 39.6833 82.1428 39.1322 82.1428 38.4352V32.0001C82.1428 31.3193 82.695 30.7519 83.3932 30.7519Z" fill="#ED0677"/>
<path fill-rule="evenodd" clip-rule="evenodd" d="M92.6158 35.906C93.0055 35.8574 93.4765 35.8898 93.8987 35.8736C94.2234 35.8736 94.3046 35.8087 94.3046 36.1329C94.3209 36.603 94.402 37.6566 94.1585 37.7701C94.0935 37.8187 91.3817 38.2401 91.1868 37.0406C91.0082 35.906 92.1774 35.9708 92.6158 35.906ZM94.2559 34.1067C93.444 34.3175 91.0082 33.6205 89.4331 35.1928C87.9879 36.6354 88.4913 39.9259 92.2099 39.7476C93.1192 39.699 94.061 39.6341 94.9704 39.6017C95.49 39.5855 95.8635 39.6179 96.237 39.391C96.5455 39.2127 96.7566 38.9371 96.7891 38.4671C96.8703 37.6404 96.8053 36.4409 96.8053 35.5656C96.8053 33.7663 96.919 32.3399 95.2627 31.2053C92.6321 29.406 89.3194 31.0594 89.2382 32.4696C89.1895 33.3773 90.1801 33.7663 90.9108 33.3611C91.5279 33.0207 91.9988 32.4047 92.9731 32.5668C93.4765 32.6317 93.7038 32.7776 93.9636 33.0693C94.126 33.2476 94.2721 33.5394 94.3046 33.7988C94.3371 34.1067 94.2559 34.1067 94.2559 34.1067ZM106.24 35.9222C106.646 35.8574 107.084 35.8898 107.523 35.8736C107.799 35.8736 107.929 35.8249 107.961 36.0843C107.977 36.2464 107.961 36.5219 107.961 36.7002C107.961 37.0406 108.075 37.6404 107.782 37.7701C107.685 37.8187 105.038 38.2401 104.827 37.0406C104.6 35.8736 105.996 35.9546 106.24 35.9222ZM107.912 34.1229C105.785 34.1229 104.259 34.0095 103.057 35.209C101.872 36.3923 102.196 38.3374 103.431 39.1803C104.113 39.6666 104.746 39.7962 105.834 39.7476C106.727 39.7152 107.669 39.6341 108.594 39.6017C109.195 39.5855 110.381 39.6341 110.429 38.4833C110.462 37.5431 110.429 36.5219 110.429 35.5656C110.429 34.6254 110.51 33.6367 110.202 32.8424C109.358 30.6541 106.694 29.8437 104.275 30.8973C103.739 31.1404 102.911 31.7726 102.862 32.4696C102.814 33.3611 103.788 33.7663 104.535 33.3611C105.152 33.0531 105.607 32.4047 106.597 32.5668C107.36 32.6803 108.042 33.2314 107.912 34.1229ZM100.832 40.7202C100.979 39.9097 100.881 32.7938 100.881 31.805C100.881 30.2813 98.8189 30.1841 98.4779 31.4484C98.2668 32.2589 98.5591 38.7588 98.4292 40.3149C98.348 41.1416 97.9582 41.2227 97.1138 41.2227C95.6362 41.2227 95.5712 42.4384 96.0421 42.9895C96.5455 43.5892 98.2668 43.3299 98.8189 43.1354C99.8744 42.7464 100.621 41.9683 100.832 40.7202ZM99.6633 26.8125H99.6146C97.9258 26.8125 97.9258 29.2763 99.6633 29.2601C101.417 29.2439 101.466 26.8125 99.6633 26.8125Z" fill="#FFCB08"/>
<path fill-rule="evenodd" clip-rule="evenodd" d="M23.1969 20.4766C20.7936 20.8332 18.7314 22.0813 16.7178 23.5564C12.2522 27.2521 8.48494 21.0601 11.9112 18.11C18.7638 12.8257 25.8762 11.3345 32.6314 15.6462C33.151 16.019 34.174 16.635 34.6612 17.0564L26.7856 20.8656C25.454 20.4928 24.2849 20.3631 23.1969 20.4766Z" fill="url(#paint0_linear_5704_108826)"/>
<path fill-rule="evenodd" clip-rule="evenodd" d="M34.5635 16.9904C37.6326 15.9044 40.2632 14.786 43.4946 13.8782C43.1374 13.4244 42.7801 12.9705 42.4229 12.5166C42.0981 12.0628 42.3742 11.9331 42.9912 12.0304C46.385 12.5815 49.7789 13.1326 53.1727 13.6675C54.0495 13.8458 54.2282 14.1862 53.5462 14.9643C51.2078 17.6226 48.8857 20.2647 46.5474 22.9231C46.2714 23.2473 45.9953 23.1824 45.9791 22.5016C45.9141 21.9343 45.8654 21.3832 45.8167 20.8159C43.5109 21.3994 38.9154 23.0366 38.9316 23.0203L32.4688 25.9543C32.4688 25.938 28.3117 28.1587 26.2982 29.342C18.6012 33.7672 15.9706 41.0776 21.1344 43.9305C25.6811 46.5564 33.0209 43.5577 34.2225 34.8046C34.531 32.438 34.1413 28.7099 32.4688 25.9543L38.9316 23.0203C40.6691 26.6026 41.7084 31.2871 41.2212 36.2148C39.6136 50.0414 26.0709 55.0502 17.3509 50.1873C8.09499 45.0976 9.34534 33.0053 18.8773 25.5976C21.2968 23.9281 23.7488 22.4044 26.2332 21.0266L34.5635 16.9904Z" fill="url(#paint1_linear_5704_108826)"/>
<defs>
<linearGradient id="paint0_linear_5704_108826" x1="29.0206" y1="12.2957" x2="9.30489" y2="29.5968" gradientUnits="userSpaceOnUse">
<stop stop-color="#ED1A77"/>
<stop offset="0.658824" stop-color="#F5757E"/>
<stop offset="1" stop-color="#FFCA0D"/>
</linearGradient>
<linearGradient id="paint1_linear_5704_108826" x1="37.2773" y1="20.0686" x2="16.1823" y2="50.1514" gradientUnits="userSpaceOnUse">
<stop stop-color="#ED1A77"/>
<stop offset="0.290196" stop-color="#F24D58"/>
<stop offset="1" stop-color="#FFCA0D"/>
</linearGradient>
</defs>
</svg>
